<?xml version="1.0" encoding="utf-8"?>
<!-- Generator: Adobe Illustrator 16.0.0, SVG Export Plug-In . SVG Version: 6.00 Build 0)  -->
<!DOCTYPE svg PUBLIC "-//W3C//DTD SVG 1.1//EN" "http://www.w3.org/Graphics/SVG/1.1/DTD/svg11.dtd">
<svg version="1.1" id="Layer_1" xmlns="http://www.w3.org/2000/svg" xmlns:xlink="http://www.w3.org/1999/xlink" x="0px" y="0px"
	 width="274.288px" height="109.273px" viewBox="0 0 274.288 109.273" enable-background="new 0 0 274.288 109.273"
	 xml:space="preserve">
<g>
	<path fill="#FFFFFF" d="M57.775,60.133c0,0.853-0.307,1.586-0.92,2.199c-0.614,0.613-1.347,0.92-2.199,0.92
		c-0.854,0-1.587-0.307-2.199-0.92c-0.614-0.613-0.921-1.347-0.921-2.199s0.307-1.586,0.921-2.199
		c0.612-0.613,1.346-0.92,2.199-0.92c0.853,0,1.585,0.307,2.199,0.92C57.468,58.547,57.775,59.281,57.775,60.133z M52.16,70.116
		c0-0.687,0.244-1.273,0.733-1.763c0.488-0.488,1.076-0.732,1.763-0.732c0.686,0,1.273,0.244,1.762,0.732
		c0.489,0.489,0.733,1.076,0.733,1.763v29.947c0,0.687-0.244,1.274-0.733,1.763c-0.488,0.489-1.076,0.733-1.762,0.733
		c-0.687,0-1.274-0.244-1.763-0.733c-0.489-0.488-0.733-1.076-0.733-1.763V70.116z"/>
	<path fill="#FFFFFF" d="M64.638,70.116c0-0.687,0.244-1.273,0.732-1.763c0.488-0.488,1.076-0.732,1.763-0.732
		s1.273,0.244,1.763,0.732c0.488,0.489,0.733,1.076,0.733,1.763v2.027c3.119-3.015,6.862-4.522,11.229-4.522
		c4.472,0,8.293,1.586,11.465,4.757c3.171,3.172,4.757,6.993,4.757,11.465v16.221c0,0.687-0.244,1.274-0.732,1.763
		c-0.489,0.489-1.076,0.733-1.763,0.733s-1.274-0.244-1.763-0.733c-0.489-0.488-0.733-1.076-0.733-1.763V83.842
		c0-3.099-1.097-5.745-3.291-7.939s-4.841-3.291-7.939-3.291s-5.745,1.097-7.938,3.291c-2.194,2.194-3.291,4.841-3.291,7.939v16.221
		c0,0.687-0.245,1.274-0.733,1.763c-0.489,0.489-1.076,0.733-1.763,0.733s-1.274-0.244-1.763-0.733
		c-0.488-0.488-0.732-1.076-0.732-1.763V70.116z"/>
	<path fill="#FFFFFF" d="M119.542,97.568c0.687,0,1.273,0.245,1.763,0.733c0.488,0.488,0.733,1.076,0.733,1.762
		c0,0.687-0.245,1.274-0.733,1.763c-0.489,0.489-1.076,0.733-1.763,0.733c-8.318,0-12.478-4.159-12.478-12.479V72.612h-2.496
		c-0.687,0-1.274-0.244-1.763-0.733c-0.488-0.488-0.732-1.076-0.732-1.763s0.244-1.273,0.732-1.763
		c0.488-0.488,1.076-0.732,1.763-0.732h2.496V55.142c0-0.687,0.244-1.273,0.732-1.763c0.488-0.488,1.076-0.733,1.763-0.733
		s1.273,0.245,1.763,0.733c0.488,0.489,0.733,1.076,0.733,1.763v12.479h5.022c0.686,0,1.273,0.244,1.763,0.732
		c0.488,0.489,0.732,1.076,0.732,1.763s-0.244,1.274-0.732,1.763c-0.489,0.489-1.077,0.733-1.763,0.733h-5.022v17.469
		C112.055,95.072,114.55,97.568,119.542,97.568z"/>
	<path fill="#FFFFFF" d="M154.106,94.074c0.687,0,1.273,0.245,1.763,0.733c0.488,0.489,0.733,1.076,0.733,1.763
		c0,0.686-0.24,1.278-0.718,1.778c-3.224,2.808-7.02,4.211-11.387,4.211c-4.825,0-8.942-1.705-12.354-5.116
		c-3.411-3.41-5.115-7.528-5.115-12.354c0-4.824,1.704-8.942,5.115-12.354c3.411-3.41,7.528-5.115,12.354-5.115
		s8.942,1.705,12.354,5.115c3.411,3.411,5.116,7.529,5.116,12.354c0,0.687-0.245,1.274-0.733,1.763
		c-0.488,0.489-1.076,0.733-1.763,0.733h-27.233c0.457,2.392,1.602,4.503,3.432,6.332c2.434,2.434,5.376,3.65,8.828,3.65
		c3.12,0,5.803-0.987,8.049-2.964C153.003,94.25,153.524,94.074,154.106,94.074z M156.757,82.594
		c-0.457-2.392-1.602-4.503-3.432-6.333c-2.433-2.434-5.376-3.649-8.828-3.649s-6.395,1.216-8.828,3.649
		c-1.83,1.83-2.975,3.941-3.432,6.333H156.757z"/>
	<path fill="#FFFFFF" d="M173.135,85.089c-1.893-0.706-3.213-1.445-3.961-2.215c-1.478-1.455-2.215-3.213-2.215-5.271
		c0-2.06,0.769-3.857,2.308-5.397c2.995-3.057,6.905-4.585,11.729-4.585c5.221,0,9.691,2.09,13.414,6.27
		c0.333,0.396,0.488,0.885,0.469,1.467c0,0.686-0.245,1.273-0.733,1.763c-0.489,0.488-1.076,0.732-1.763,0.732
		s-1.237-0.218-1.653-0.655c-0.416-0.437-0.718-0.748-0.904-0.936c-2.434-2.434-5.377-3.649-8.829-3.649s-6.207,1.081-8.267,3.244
		c-0.499,0.604-0.748,1.32-0.748,2.152c0.062,0.978,0.571,1.644,1.528,1.996l15.348,5.085c1.893,0.708,3.214,1.446,3.962,2.215
		c1.477,1.456,2.215,3.214,2.215,5.272s-0.77,3.857-2.309,5.396c-2.994,3.058-6.904,4.586-11.729,4.586
		c-5.24,0-9.712-2.09-13.414-6.271c-0.312-0.437-0.468-0.925-0.468-1.466c0-0.687,0.244-1.273,0.733-1.763
		c0.488-0.488,1.076-0.733,1.763-0.733s1.237,0.219,1.653,0.655s0.718,0.749,0.904,0.936c2.434,2.434,5.376,3.65,8.828,3.65
		s6.208-1.081,8.268-3.244c0.499-0.604,0.748-1.32,0.748-2.152c-0.062-0.978-0.572-1.643-1.528-1.997L173.135,85.089z"/>
	<path fill="#FFFFFF" d="M206.203,85.089c-1.893-0.706-3.213-1.445-3.961-2.215c-1.478-1.455-2.215-3.213-2.215-5.271
		c0-2.06,0.769-3.857,2.308-5.397c2.995-3.057,6.905-4.585,11.729-4.585c5.221,0,9.691,2.09,13.414,6.27
		c0.333,0.396,0.488,0.885,0.469,1.467c0,0.686-0.245,1.273-0.733,1.763c-0.489,0.488-1.076,0.732-1.763,0.732
		s-1.237-0.218-1.653-0.655c-0.416-0.437-0.718-0.748-0.904-0.936c-2.434-2.434-5.377-3.649-8.829-3.649s-6.207,1.081-8.267,3.244
		c-0.499,0.604-0.748,1.32-0.748,2.152c0.062,0.978,0.571,1.644,1.528,1.996l15.348,5.085c1.893,0.708,3.214,1.446,3.962,2.215
		c1.477,1.456,2.215,3.214,2.215,5.272s-0.77,3.857-2.309,5.396c-2.994,3.058-6.904,4.586-11.729,4.586
		c-5.24,0-9.712-2.09-13.414-6.271c-0.312-0.437-0.468-0.925-0.468-1.466c0-0.687,0.244-1.273,0.733-1.763
		c0.488-0.488,1.076-0.733,1.763-0.733s1.237,0.219,1.653,0.655s0.718,0.749,0.904,0.936c2.434,2.434,5.376,3.65,8.828,3.65
		s6.208-1.081,8.268-3.244c0.499-0.604,0.748-1.32,0.748-2.152c-0.062-0.978-0.572-1.643-1.528-1.997L206.203,85.089z"/>
	<path fill="#FFFFFF" d="M268.032,85.089c0,4.825-1.705,8.943-5.116,12.354c-3.411,3.411-7.528,5.116-12.354,5.116
		s-8.942-1.705-12.354-5.116c-3.411-3.41-5.115-7.528-5.115-12.354c0-4.824,1.704-8.942,5.115-12.354
		c3.411-3.41,7.528-5.115,12.354-5.115s8.942,1.705,12.354,5.115C266.327,76.147,268.032,80.265,268.032,85.089z M250.562,72.612
		c-3.452,0-6.395,1.216-8.828,3.649s-3.649,5.376-3.649,8.828c0,3.453,1.216,6.396,3.649,8.828c2.434,2.434,5.376,3.65,8.828,3.65
		s6.396-1.217,8.828-3.65c2.434-2.433,3.65-5.375,3.65-8.828c0-3.452-1.217-6.395-3.65-8.828
		C256.958,73.828,254.014,72.612,250.562,72.612z"/>
</g>
<g>
	<linearGradient id="SVGID_1_" gradientUnits="userSpaceOnUse" x1="47.8896" y1="88.1987" x2="47.8896" y2="6.5073">
		<stop  offset="0" style="stop-color:#FFFFFF"/>
		<stop  offset="1" style="stop-color:#EEEEEE"/>
	</linearGradient>
	<path fill="url(#SVGID_1_)" d="M26.725,47.657c0-11.692,9.475-21.167,21.163-21.167c11.689,0,21.168,9.475,21.168,21.167
		c0,1.717-0.231,3.382-0.617,4.991h20.287c0.198-1.641,0.312-3.307,0.312-4.991c0-22.731-18.423-41.149-41.149-41.149
		c-22.726,0-41.146,18.418-41.146,41.149c0,20.338,14.758,37.216,34.146,40.542V67.608C32.647,64.72,26.725,56.884,26.725,47.657z"
		/>
</g>
</svg>
